<?xml version="1.0" encoding="UTF-8" standalone="no"?><svg xmlns="http://www.w3.org/2000/svg" xmlns:xlink="http://www.w3.org/1999/xlink" fill="#ffffff" height="14" preserveAspectRatio="xMidYMid meet" version="1" viewBox="1.9 5.0 20.1 14.0" width="20.1" zoomAndPan="magnify"><g id="change1_1"><path d="M 3 5 A 1.0001 1.0001 0 1 0 3 7 L 21 7 A 1.0001 1.0001 0 1 0 21 5 L 3 5 z M 3 11 A 1.0001 1.0001 0 1 0 3 13 L 21 13 A 1.0001 1.0001 0 1 0 21 11 L 3 11 z M 3 17 A 1.0001 1.0001 0 1 0 3 19 L 21 19 A 1.0001 1.0001 0 1 0 21 17 L 3 17 z" fill="inherit"/></g></svg>